<svg xmlns="http://www.w3.org/2000/svg" viewBox="0 0 432.16 532.86"><g id="Layer_2" data-name="Layer 2"><g id="Layer_1-2" data-name="Layer 1"><path d="M215.59,532.86c.67-7.17,1.32-14.35,2-21.52.73-7.57,1.5-15.13,2.23-22.69q.84-8.77,1.63-17.55c.11-1.15.12-2.32.15-3l-5.4-1.73.11-1a31.69,31.69,0,0,0,3.88-1.05c.66-.26,1.59-.9,1.66-1.46.42-3.32.63-6.68,1-10.55-1,1.34-1.64,2.22-2.28,3.11A16.4,16.4,0,0,1,219,442.66c1-4.24-.51-8-2.17-11.68-.47-1.05-2.3-1.49-3.5-2.22s-1.27-1.29-.78-2.8c1.1-3.4,3.59-6.78,1.35-10.65-.14-.25-.25-.7-.12-.89,2.45-3.82-.67-5.51-3-7.09a26,26,0,0,1-8.85-10.72c-1.85-3.83-1.5-6.61,1.42-9.65a3.26,3.26,0,0,1,3.77-.9,34,34,0,0,0,7.77,1.33c1.93.11,2.16-.75,1.15-2.5a7.43,7.43,0,0,1-.51-2.1,6.52,6.52,0,0,1,2.34.27c2.68,1.45,5.28,3.08,7.92,4.61a10.53,10.53,0,0,0,1.58.59c.79-2.17-.66-3-1.87-4.11-4.7-4.13-9.45-8.21-14-12.51-2.67-2.52-3.84-10.54-2.13-13.78a4.73,4.73,0,0,1,2.73-1.81c4.07-1.17,7.12,1.13,10.34,3.12,5.63,3.49,11.37,6.82,17.16,10,1.2.66,2.86.49,4.3.7l.53-.58a13.38,13.38,0,0,0-1.77-2.9c-5.78-5.52-11.53-11.07-17.5-16.38-3.59-3.19-4.31-3.89-2.67-8.42a55.65,55.65,0,0,1,5.19-9.94c1.24-2,5-1.48,5.51.9,1.05,4.91,5,6.63,8.57,9a80.83,80.83,0,0,1,7.58,6.18c.42.35.68.89,1.11,1.21,3.9,2.86,6.7,6.66,9.32,10.64a6.12,6.12,0,0,0,1.47,1.49c2.35,1.74,4.89,3.27,7.06,5.21,1.13,1,1.7,2.71,2.42,4.15,1.29,2.55,2.26,5.31,3.81,7.69a5.19,5.19,0,0,0,7.69,1.08,1.38,1.38,0,0,1,2.41.69,23.69,23.69,0,0,1,1.2,6.14c.07,2.72.36,5.26,2.09,7.46,3,3.82,3.11,8.58,4.2,13a1.87,1.87,0,0,1-.84,1.49c-1.7,1-1.39,2.19-.59,3.58,2.75,4.78,5.32,9.69,8.29,14.33a22,22,0,0,0,5.28,5.44c4.94,3.73,9.93,7.43,15.19,10.67,3.19,2,6.47,4.35,10.77,3.54.85-.16,2,.67,2.84,1.31a34.11,34.11,0,0,1,3.77,3.54,2.07,2.07,0,0,0,3.29.06c1.25-1.17,2.29-2.57,3.57-3.72,1.9-1.71,3.87-3.36,5.92-4.9s3.19,0,4.41,1.29c1.36,1.4,0,2.19-.72,3.15-2.29,3.06-4.69,6.06-6.8,9.25-1.34,2-.78,3.06,1.54,3.85,4.54,1.55,5.19,1.37,8.16-2.41a11.52,11.52,0,0,1,2.56-2.6,8.52,8.52,0,0,1,0,2.37c-2.88,9.46-5.82,19-11.18,27.33-3.91,6.09-8.77,11.59-13.48,17.13-3,3.57-6.51,6.79-9.88,10.07-2,2-2.43,1.87-4.31-.28a43.68,43.68,0,0,0-3.76-4.08,6.1,6.1,0,0,0,2.49,6.29c1.94,1.57,1.87,2.74.11,4.28a5,5,0,0,0-1.42,5.19c.84,3.42,1.85,6.79,2.79,10.18h-2.82c-.08-2.73.22-5.57-3.5-6.52-.57-.14-1.24-2.91-.88-3.19,1.75-1.34.94-2.77.66-4.24-1-4.95-1.85-9.93-2.93-14.86-.24-1.11-.88-2.58-1.76-3-1.34-.64-3.28-.09-4.55-.8-2.36-1.31-3.67-.16-5,1.39a31.73,31.73,0,0,0-2.51,3.26c-.9,1.38-2.05,1.93-3.59,1.32-1.27-.52-2.12-1.29-1.44-2.91a2.36,2.36,0,0,0-.4-1.7c-2.92-5.14-5.83-10.28-6.17-16.4,0-.15-.22-.29-.74-.93,0,2.19-.07,3.82,0,5.44.43,8.21.92,16.41,1.35,24.62.32,6.17.58,12.35.87,18.52Zm44-20.38-.3-1.28-3.21.72.24,1.17Z"/><path d="M90.42,532.86c.26-.36.47-1,.8-1.06,2.84-.66,2.44-2.88,1.65-4.45-2.87-5.67-4-11.84-5.5-17.89-.31-1.19.38-2.61.22-3.88-.57-4.54-1.43-9-1.94-13.57-.42-3.78-.38-7.61-.75-11.4a30.1,30.1,0,0,0-1.32-4.71,3.22,3.22,0,0,1-.18-1.66,22.94,22.94,0,0,0-.55-17.83,6.3,6.3,0,0,0-1.12-2,2.72,2.72,0,0,0-2-.84c-2.55.79-3,.62-3.54-2.3a19.72,19.72,0,0,1,2-.26c3.1-.1,3.33-.53,1.93-3.21A23.93,23.93,0,0,1,78.92,444c2.62,1.36,3.19,6.11,6.87,2.27l.49.53c-.24,1.26-.51,2.52-.71,3.79-.15.95-.6,2.13-.22,2.85,4.7,9,5.15,18.65,5.31,28.53.17,10.32,1,20.65,1.89,30.93.61,6.69,2,13.3,3,19.94Z"/><path d="M149.81,58.59a10.3,10.3,0,0,0-5.91-5.84c-.85-.34-2.12.32-3,.48,1.55-2.48.9-5.59.44-8.64-.34-2.28.2-3.6,2.12-5.32a28.51,28.51,0,0,1,10.39-6c2.35-.78,3.45-3,3.92-5.49,1.38-7.26,5.47-10.45,11.59-10.13a15.82,15.82,0,0,0,3.28-.55l.48,3,.69.11a64.43,64.43,0,0,0,2.38-6.61c1.15-4.55,3.51-7.7,8.3-8.82a65.66,65.66,0,0,0,6.74-2.36l.21.56-7.25,3c-1.68.71-3.37,4.14-2.78,5.83a2.33,2.33,0,0,0,1.2,1.27c.27.11,1-.36,1.23-.74,1.6-2.64,1.57-2.65,3.36,0,.11.16.4.2.59.29,2.42-2.71,2.42-2.71,5.88-.93.49-.89,1-1.78,1.51-2.75,1.89,3.25,2.9,3.75,5.76,2.79.17,1,.39,1.91.5,2.86s.14,1.94.21,2.91l.71.08c.18-1.34.37-2.67.57-4.12,2,1.56,3.32.55,4.7-1.33a37.64,37.64,0,0,1,4.89-5.44,48.7,48.7,0,0,1,5-3.6c2.31,1.92,1.88,4.74,2,7.42,0,.78-.07,1.57,0,2.35.22,2,1.2,2.4,2.91,1.19,0,.61-.06,1.18-.09,1.75l.57.15c.84-2.61,1.62-5.25,2.56-7.83a11.58,11.58,0,0,1,2.12-3.46c1.65,2.86-3.18,5.45.78,8.43L232,8.3l.75,1.47c1.12.21,2.06.44,3,.55.75.09,1.92.34,2.2,0,1.52-2,3.44-1.06,4.88-.46.94.39,1.34,2.09,2.07,3.38l3.27,1.88,4.59-5.95c-1.27-1.5-1.19-2.19.57-3.63a7.3,7.3,0,0,0,1.24-2c-.83-.07-1.65-.18-2.48-.2-.27,0-.54.22-.94.39l-.26-2-2.37.37L248,1.49C248.56,1,249.11,0,249.65,0c3.63,0,7.26.16,10.88.37a58.44,58.44,0,0,1,9.48.9c2,.47,3.79,2,5.62,3.13s3.42,2.79,5.38,3.48a32.47,32.47,0,0,1,16.46,12.68c3.13,4.64,7.65,6.93,11.66,10.16a13.27,13.27,0,0,1,2.22,3c.39.58.71,1.2,1.24,2.1.44-.85.65-1.25.83-1.61L322.13,42l-2.06.86,3.14,1.39c-.07.91-1.1,2.41,1.2,2.14.27,0,.73.53.91.91,3,6.09,6.81,11.82,8.12,18.63.88,4.59,1.76,9.17,2.56,13.77.54,3.14,1.36,6.32,1.3,9.46a81.87,81.87,0,0,1-4.58,26.2c-3.32,9.34-6.74,18.7-8.08,28.61-.23,1.71-.34,3.44-.63,5.14-.57,3.42-1.23,6.83-1.86,10.24l-.89,0c-.19-2-.49-4.07-.56-6.11-.4-10.34-.6-20.68-1.19-31-.21-3.6-1.29-7.17-2-10.73-.51-2.42-.8-5-1.82-7.18-1.13-2.45-1.9-5.1-4.19-7.1-1.2-1-1.4-3.52-1.54-5.39-.18-2.49-2-3.79-3.26-5.49s-2.62-3.27-3.8-5a5.11,5.11,0,0,0-5.44-1.93,4.89,4.89,0,0,1-2.89-.44c-4.32-2-8.48-4.29-12.91-5.92-2.7-1-5.77-1.1-8.7-1.34a31.72,31.72,0,0,0-11.28,1.21c-2.38.66-5.7-.31-8-1.62-1.7-1-3.33-1.89-5.1-1.81-2.32.11-5.14-.95-6.77,1.93-.68,1.2-.59,2,.89,2.11,1.26.12,2.4.55,2,1.93a7.73,7.73,0,0,1-2.17,2.92c-.31.3-1.21.11-1.8,0a6.09,6.09,0,0,0-7.19,3,39.38,39.38,0,0,1,2.36,3.17,16.38,16.38,0,0,1-1.58,1.26c-1-1.08-1.77-2-2.56-2.82l-.57.2c.11,2.07-.92,3.1-2.66,3.93-.86.4-1.23,1.83-2,3-2.48-1.28-3.84.56-5.5,2.57-1.47,1.79-3.61,3-5.48,4.5,1.23.6,2.58,2.59,4.83.79.22-.17.74-.31.88-.19,1.86,1.59,3.93.94,6,.64a.57.57,0,0,1,.45.09c2.11,1.85,4.95,2.55,7.11,4.14,4.09,3,7.45,6.79,12.85,8,2.13.48,4.22.57,6.3.83,1.84.23,3.67.12,4.44-2.36.33-1,1.33-1.86,3.2-1.85,2.16,0,4.32-1.59,6.52-2.42a10.5,10.5,0,0,1,3.74-1.09,65,65,0,0,1,20.13,3.71c1.49.53,3.25.59,4.53,1.41a39.15,39.15,0,0,1,5.79,4.83c.26.26-.14,1.74-.64,2.12a6.71,6.71,0,0,1-3,1.19c-2,.31-3.76.47-4.93,2.79-.55,1.09-3,1.19-4.63,1.75a6.08,6.08,0,0,0-2.1,1.21c7.4,2.21,13.16,6.18,16.36,13.18l-.45.54a13.46,13.46,0,0,1-2.14-2c-2.66-4.06-6.48-6.47-11-8a1.59,1.59,0,0,0-.92-.11,14.44,14.44,0,0,0-1.69.9c.4.42.72,1,1.2,1.24,6.18,2.37,10.58,7.18,15.54,11.22.15.12.18.39.47,1.09a34,34,0,0,1-4.51-1.13c-3.37-1.37-6.46-.72-9.43,1-2.08,1.21-2,1.71,0,3,.37.23.69.52,1.16.88-.35.32-.54.66-.78.7-6.73,1-13.51,2.52-19.52-2.45-2.41-2-5.16-3.61-7.4-5.77a21.11,21.11,0,0,1-3.53-5.42c-1.68-3.15-3.09-6.45-4.8-9.58-.68-1.24-1.93-1.14-3-.21-.88.76-1.86,1.42-2.68,2.23a4.61,4.61,0,0,0-1.21,1.89,32.38,32.38,0,0,0-.83,4.37,3.9,3.9,0,0,0,.1,2.29c3.56,6,.88,11.15-2,16.31a8.42,8.42,0,0,0-1.13,2.29c-.09.5.47,1.63.68,1.61,3.08-.23,4.17,2.14,4.91,4.23.88,2.5,2.67,4,4.45,5.66a6.33,6.33,0,0,1,2.11,5.9,2.39,2.39,0,0,0,1.34,1.89,8.88,8.88,0,0,1,6.33,6.13c2.18,1.46,3.89,2.61,5.62,3.75a1.76,1.76,0,0,0,.84.37c4,.1,6.62,2.87,9.64,4.82,2.05,1.32,3.65.89,3.86-1.54.25-2.95.24-5.94-1.58-8.6a4.85,4.85,0,0,1-.84-2.62,2,2,0,0,1,3.39-1.45c2,1.92,3.76,4.09,5.66,6.13,2.13,2.28,4.34,4.49,6.43,6.81a8.94,8.94,0,0,1,2,3.09c.54,1.76,1.1,3.33,2.76,4.38.35.21.29,1.19.27,1.82,0,1.32-.62,2.86-.14,3.93,1.81,4-.55,6.86-2.44,9.86-.42.65-1,1.18-1.39,1.86-1.4,2.66-2.71,5.36-4.1,8a4.36,4.36,0,0,1-5.69,1.44,2.34,2.34,0,0,1-1-1.22c-.68-3-1.23-6-1.87-8.94a3,3,0,0,0-4.31-1.95c-3.61,1.5-6.85.19-10.18-.67l-.3-.82,4.41-2.21c-.11-.17-.5-.76-.92-1.31-.07-.09-.42-.05-.43-.1-.49-3.62-4.28-3.15-6.21-5a2.13,2.13,0,0,0-1.22-.65c-4-.12-8-2.11-12.16-.42a5,5,0,0,1-2.44-.16c-2.74-.42-5.48-1-7.38,1.93a1.75,1.75,0,0,1-1.52.47c-3.54-1-3.53-1-5.87,1.41-1.25.53-2.83.79-3.64,1.71-.39.45.66,2.15,1.06,3.29l3.2-2a4.47,4.47,0,0,0,6.17-.21c.2-.18.72,0,1.09,0,2.59,0,5.18,0,7.76,0,2.31.06,4.67.59,6.9.23,3-.48,5.7,1.4,8.64.68-.53,2.4-1.62,2.93-3.62,1.85a3.45,3.45,0,0,0-1.73-.55c-2.45.25-4.9.6-7.33,1-.42.07-.76.62-1.13,1,.43.37.85,1,1.3,1a16.93,16.93,0,0,1,4.14.32c-1.15.7-2.56,1.2-3.38,2.18s-.82,2.3-1.19,3.49a9.59,9.59,0,0,0,2.62.52c2-.2,3,.88,3.95,2.3-1.95,2.07-1.73,2.85,1,3.54,1.88.47,3.8.81,5.65,1.4,2.11.67,2.8,2.71,1.75,4.69s-4.06,3.44-6.44,3.5a34.4,34.4,0,0,0-7.35,1c-1.37.33-2.46,1.35-1.59,3.22.33.7.05,1.67.05,2.7,1.81.4,3.58.75,5.33,1.21a1.58,1.58,0,0,1,.91.93c.85,2.59,2.21,4.53,5.24,4.7a1.39,1.39,0,0,1,1,.82c.6,2.62,2.12,1.78,3.46.87,1.83-1.23,3.58-2,5.57-.41.06.05.17.11.21.09,2.7-1.65,5,.61,7.76,1v-4.83l3.65,3.05,2.13-5.39c1.28.72,2,2.42,3.51.76.72-.77,2.21-.84,3.31-1.21.16.17.37.33.35.39-1,2.19-1.91,4.38-2.92,6.54-.11.25-.54.57-.73.52-3.91-1-4.06,3.49-7,4.23,1.68,1.88,2.73.65,3.91,0a11.77,11.77,0,0,1,3.79-1.5c1.25-.15,1.94.74.91,2s-2.14,2.27-3.21,3.4c-3,3.18-6,6.38-9,9.55a26.42,26.42,0,0,0-2,1.92,12,12,0,0,0-2.15,4.17c5.74-1.35,9.85-5.16,14-8.69s7.61-7.94,11.13-11.7c0,2.94-1.28,6-3.42,8.79-5.29,6.95-11.91,12.48-18.83,17.62-7.61,5.66-15.53,10.88-23.17,16.49a22.15,22.15,0,0,1-12.5,4.14,6.45,6.45,0,0,0-1.17.09c-13.6,3.18-24.26-2.36-33.69-11.41q-9.31-8.94-18.43-18.09a31.06,31.06,0,0,1-5.27-6.27,11.49,11.49,0,0,1-1.67-6.6c.64-5.2-.22-10.22-1.33-15.12s-3.13-9.43-4.86-14.1c-1.31-3.51-2.82-6.94-4.17-10.43-.61-1.58-1.61-2-3.14-1.43-.81.28-1.68.37-2.49.66a2.7,2.7,0,0,1-3.72-1.54c-3.32-8.71-10.31-15.57-12.55-24.81-1.44-6-3.35-11.92-4-18-.47-4.32.67-8.85,1.33-13.25.13-.86,1.25-1.8,2.14-2.27,2.28-1.22,3-2.89,2-5.25a102.5,102.5,0,0,0-4.09-9.93c-4.07-7.72-7.2-15.72-8.37-24.42-.52-3.81-1.81-5-5.63-5.89a2.73,2.73,0,0,1-1.72-1.84q-1.77-11.7-3.28-23.43a122.49,122.49,0,0,1-1.12-12.37,20.55,20.55,0,0,1,1.22-6.87A6.92,6.92,0,0,1,137,58.06a8.5,8.5,0,0,0,3.49-3c1.4-1.78,2.73-1.52,4.17-.27.93.81,1.72,1.81,2.63,2.66.63.6,1.37,1.1,2.06,1.64Zm62.78,110.68a31.42,31.42,0,0,0,4.32-.38c.68-.15,1.83-1.09,1.75-1.3a52.35,52.35,0,0,0-2.5-5.57c-.08-.15-.74-.1-1.09,0-3.27,1-4.57-.17-4-3.64.24-1.45-1.27-3.9-2.6-3.93-2.53,0-5.07,0-7.59.17a4.31,4.31,0,0,0-2.33.93,1.92,1.92,0,0,0-.15,1.69c2.1,1.09,4.29,2,6.45,3,.67.31,1.33.64,2,1a17.4,17.4,0,0,1-2.22,2.6c-.33.29-1.33-.31-1.78-.06-.66.36-1.68,1.36-1.55,1.68a22.35,22.35,0,0,0,2.62,4.67c.27.36,1.41,0,2.12.17a2.11,2.11,0,0,1,1.33.83c1.58,3,4.07,1.09,6.47,1.69-3-4.89-3-4.89-2-5.54ZM261.35,185c7.3,4.19,13.95,8,20.61,11.8,1,.56,2.4.69,2.38-.67,0-1.88-.3-4.14-1.38-5.55a18.61,18.61,0,0,0-7.34-5.34c-4.43-2-8.63-.69-12.93-.77C262.33,184.5,262,184.79,261.35,185Zm-21.67-27.15a11,11,0,0,0-3.17.06,11.35,11.35,0,0,0-3.79,2,2.58,2.58,0,0,0-.09,2.48A3.15,3.15,0,0,0,235,163.6C236.06,163.61,239.48,159.26,239.68,157.89ZM298.62,26.52c-.88-3.55-4.56-6.38-7-5.89.72,1.16,1.27,2.69,2.34,3.64C295.19,25.39,296.34,27.27,298.62,26.52Zm8.46,15.65L307,43a7,7,0,0,0,2.56.26c1.61-.51,2.83-.5,2.88.62l3.34-3.24C313,39.1,310.24,42.16,307.08,42.17Zm-86,88.44c-.1,1.83-.19,3.46-.29,5.21,1.86-.06,3.83.05,4-1.85C225,131.92,223.11,131.16,221.11,130.61Zm98.81-73.92L321,56.2c-.19-.88-.39-1.75-.59-2.66l3-.42A2.68,2.68,0,0,0,320,51.25c-.73.2-1.54,1.71-1.54,2.63S319.38,55.75,319.92,56.69ZM311.3,36.06l-.25-.42-6.68,1.21-.23.71,4.25,1.8Zm-7.67-6.56-.47.86,6.94,3.72c-.46-1-.59-2.06-1.11-2.34C307.28,30.85,305.43,30.23,303.63,29.5ZM288.35,135.73l.77.91,2.79-1.71-1.62-1.47C289.64,134.21,289,135,288.35,135.73Zm-35.08,70.82.15-1.19L250,205l-.15,1.12ZM329.62,60l-.84.7,3,3.54.6-.48Q331,61.85,329.62,60Z"/><path d="M260,299c-.74-.87-1.09-1.13-1.22-1.46-.24-.68-.74-1.72-.46-2,.9-1.07,1.79-.41,2.46.5,4.19,5.7,9.87,9.56,15.93,13,1,.56,1.95,1.27,3.23,2.11-.78.34-1.24.53-1.68.74-1.64.79-2.84,1.79-1.68,3.82.84,1.45.21,2.52-1.23,2.47-4.76-.17-7.86,2.65-10.83,5.71-1.25,1.3-2.41,1.53-3.89.49a36.47,36.47,0,0,0-4.32-2.78c-.65-.33-1.61-.05-2.43-.05,0,.77-.25,1.85.15,2.24,1.45,1.39,3.24,2.44,4.69,3.84,1.71,1.63,3.62,3.27,4.68,5.31a15.48,15.48,0,0,0,7.91,7.18,41,41,0,0,1,15.21,11.45A11.2,11.2,0,0,0,287.7,353c1.34,1.19,1.06,2.35.25,3.75a16.31,16.31,0,0,0-1.77,4.36c-.46,2.08-1.1,2.32-3,1.58a26.7,26.7,0,0,0-5.74-1.17,8.13,8.13,0,0,1-6.2-4.46c-.81-1.45-2.61-2.35-3.94-3.53-8.08-7.18-16.13-14.38-24.25-21.53-3-2.67-6.5-4.39-10.72-3.79a6.09,6.09,0,0,0-2.46.68c-1.71,1.13-2.38.66-3.26-1.13a50.71,50.71,0,0,0-5-8.16c-1.4-1.88-2.48-1.73-3.62.24-1.7,2.92-4.19,5.35-4.77,9-.44,2.69-2.06,3.12-4.19,1.23.38-.18.73-.35,1.08-.5,1.74-.78,2.59-2.07,2-4s-1.05-3.79-3.62-3.55c-2,.19-3.92.45-5.88.69-.58.07-1.16.18-2.19.34a20.74,20.74,0,0,1,1-2.69c3.07-5.56,6.06-11.16,9.33-16.6a31,31,0,0,1,4.94-5.93c3.4-3.34,6.08-3.3,9.06.48,2.31,2.92,5.41,3.24,8.53,3.5,3.55.3,7.17-.15,10.69.28,4,.49,7.59-.66,11.29-1.57C256.73,300.15,258.13,299.62,260,299Z"/><path d="M185.34,442.39c1.8,0,3.61.05,5.4,0,1.34-.05,2,.35,2.09,1.81a20.32,20.32,0,0,0,.57,4.18c.49,1.87,0,2.85-2,3-3.74.32-7.48.69-11.22,1-1.8.15-2.6-.55-2.75-2.52-.65-8.47-.67-6.93,6.51-7.33.47,0,.94,0,1.41,0Zm0,7.88c-.62-5.61-.84-5.89-4.2-5.33-2.69.46-1.67,2.73-1.33,3.89C180.84,452.41,183.43,448.87,185.35,450.27Zm1.44-4.87c1,1.24-1.46,3.78,1.87,3.55a2.29,2.29,0,0,0,1.47-1.68C190.15,445.19,188.48,445.56,186.79,445.4Z"/><path d="M260.05,166.55c3.08-3.61,11.08-4.38,14.3-1.34a4.65,4.65,0,0,1,1,3.47,3.71,3.71,0,0,1-3.12,3.62c-1.53.26-2.44-.41-3.18-1.76-.35-.63-1.32-1-2.08-1.29C264.72,168.32,262.44,167.48,260.05,166.55Z"/><path d="M90.84,311.45,72.52,322.34l-.32-.53C78.48,318.5,83.24,312.64,90.84,311.45Z"/><path d="M413.51,303.87l18.32,10.89.33-.53C425.87,310.92,421.12,305.06,413.51,303.87Z"/><path d="M.06,485.51C-.39,477,2,468.91,3.84,460.74Z"/><path d="M292.19,221.39a13.48,13.48,0,0,1-2.49,2.08c-.56.28-1.45-.13-2.2-.23.24-.73.27-1.85.75-2.1a14.2,14.2,0,0,1,3.45-.88Z"/><path d="M302.08,235l-3.67-.16,1.7-3,2.59,2.69Z"/><path d="M247.43,12.5c-.7-1.53-.7-1.53,2.88-4.44C250.91,9.54,250.1,10.78,247.43,12.5Z"/><path d="M309.38,431.16c1.61.44,3.75-.05,4.31,3.11l-4.77-2.17Z"/><path d="M252.6,299.38h-6.24v-.74h6.2Z"/><path d="M90,448.77c.1,1.5.19,3,.29,4.51l-.92.05v-4.51Z"/><path d="M74.63,485.8l2.68,1.78-.93,1.2-2.46-2.08Z"/><path d="M205.27,526.05c-1.09,1-2.21,1.55-3.6-.38l3.46-.44Z"/><path d="M111.15,512.5l3,1.19a7.29,7.29,0,0,1-.42.93c-1-.29-2-.64-3-1Z"/></g></g></svg>